<svg width="1262" height="461" viewBox="0 0 1262 461" fill="none" xmlns="http://www.w3.org/2000/svg">
<path opacity="0.7" d="M321.055 116.637C312.773 92.1133 313.682 52.5915 335.5 39.5V39.5V39.5C368.421 19.7462 399.218 51.8303 411.3 89.1352L452.562 216.537C460.806 241.989 449.671 275.302 427.758 290.75V290.75C406.264 305.902 382.375 298.212 374.013 273.45L321.055 116.637Z" fill="#101651"/>
<rect opacity="0.7" width="121.237" height="393.741" rx="60.6184" transform="matrix(0.757479 0.652859 -0.360712 0.932677 339.635 5.99951)" fill="#101651"/>
<rect opacity="0.7" x="398.492" y="320.803" width="86.761" height="129.519" rx="43.3805" transform="rotate(-17.3696 398.492 320.803)" fill="#101651"/>
<path opacity="0.7" d="M114.993 116.136C108.399 99.7114 110.928 77.6238 121.311 60.9592V60.9592C128.419 49.5497 138.354 42.1063 148.552 40.5508L158.21 39.0777C178.751 35.9447 197.069 48.1246 206.042 70.8806L316.652 351.412C323.966 369.964 318.733 395.465 304.513 410.556V410.556C299.91 415.442 294.664 418.884 289.246 420.574L282.577 422.654C258.62 430.127 236.08 417.763 225.468 391.327L114.993 116.136Z" fill="#101651"/>
<rect width="121.237" height="393.741" rx="60.6184" transform="matrix(0.757479 0.652859 -0.360712 0.932677 142.027 5.99951)" fill="#101651"/>
<path d="M597.866 395.577L493.603 82.2847C491.253 75.5689 492.092 69.3567 496.122 63.6483C500.151 57.9399 505.692 55.0856 512.744 55.0856H530.876C539.271 55.0856 546.994 57.772 554.046 63.1446C561.097 68.1815 565.631 74.7294 567.645 82.7884L644.709 353.268C644.709 353.603 644.877 353.771 645.213 353.771C645.549 353.771 645.717 353.603 645.717 353.268L723.788 82.2847C726.138 74.2257 730.672 67.6778 737.387 62.6409C744.439 57.6041 752.162 55.0856 760.557 55.0856H776.675C783.727 55.0856 789.267 57.9399 793.297 63.6483C797.326 69.3567 798.166 75.5689 795.815 82.2847L691.552 395.577C688.866 403.636 683.997 410.184 676.945 415.221C670.229 420.258 662.506 422.776 653.776 422.776H635.643C627.248 422.776 619.525 420.258 612.473 415.221C605.758 410.184 600.889 403.636 597.866 395.577ZM859.441 422.776C851.718 422.776 845.002 419.922 839.293 414.214C833.585 408.505 830.731 401.789 830.731 394.066V83.7957C830.731 76.0725 833.585 69.3567 839.293 63.6483C845.002 57.9399 851.718 55.0856 859.441 55.0856H879.588C887.311 55.0856 894.027 57.9399 899.736 63.6483C905.444 69.3567 908.298 76.0725 908.298 83.7957V394.066C908.298 401.789 905.444 408.505 899.736 414.214C894.027 419.922 887.311 422.776 879.588 422.776H859.441ZM1098.97 117.543L1054.65 275.7C1054.31 276.707 1054.48 277.715 1055.15 278.722C1055.83 279.73 1056.67 280.233 1057.67 280.233H1141.28C1142.29 280.233 1143.13 279.73 1143.8 278.722C1144.47 277.715 1144.64 276.707 1144.31 275.7L1099.98 117.543C1099.98 117.207 1099.81 117.039 1099.48 117.039C1099.14 117.039 1098.97 117.207 1098.97 117.543ZM968.52 422.776C961.469 422.776 955.928 419.922 951.899 414.214C947.869 408.505 947.03 402.293 949.38 395.577L1053.64 82.2847C1056.67 74.2257 1061.53 67.6778 1068.25 62.6409C1075.3 57.6041 1083.02 55.0856 1091.42 55.0856H1109.55C1118.28 55.0856 1126.01 57.6041 1132.72 62.6409C1139.77 67.6778 1144.64 74.2257 1147.33 82.2847L1251.59 395.577C1253.94 402.293 1253.1 408.505 1249.07 414.214C1245.04 419.922 1239.5 422.776 1232.45 422.776H1214.32C1206.26 422.776 1198.7 420.258 1191.65 415.221C1184.94 409.848 1180.4 403.133 1178.05 395.074L1161.94 338.157C1161.6 335.471 1159.75 334.128 1156.4 334.128H1042.56C1039.54 334.128 1037.69 335.471 1037.02 338.157L1020.9 395.074C1018.89 403.133 1014.36 409.848 1007.3 415.221C1000.59 420.258 993.033 422.776 984.638 422.776H968.52Z" fill="#4D516E"/>
</svg>
